<svg width="32" height="32" viewBox="0 0 32 32" fill="none" xmlns="http://www.w3.org/2000/svg">
<g clip-path="url(#clip0_135_5872)">
<path d="M16 32C24.8366 32 32 24.8366 32 16C32 7.16344 24.8366 0 16 0C7.16344 0 0 7.16344 0 16C0 24.8366 7.16344 32 16 32Z" fill="#E60000"/>
<path d="M18.5 23.18V18.57C18.5 18.27 18.36 17.77 18.36 17.77C18.36 17.77 16.06 12.7 16.05 12.69C15.7 11.85 14.76 11.63 14.76 11.63C14.76 11.63 8.39 11.67 8.37 11.63C7.45 11.66 6.96 12.55 6.96 12.55L4.55 17.86C4.55 17.86 4.54 17.91 4.53 17.95C4.49 18.09 4.47 18.24 4.47 18.4V23.21C4.47 23.53 4.86 23.55 4.86 23.55H6.5C6.84 23.49 6.85 23.18 6.85 23.18V22.09L16.11 22.06V23.23C16.13 23.55 16.48 23.54 16.48 23.54C16.48 23.54 18.14 23.55 18.15 23.54C18.55 23.5 18.5 23.19 18.5 23.19V23.18ZM7.88 13.72C8.15 12.99 9.15 13.1 9.15 13.1C9.15 13.1 13.63 13.07 13.66 13.1C14.73 13.1 15.03 13.75 15.03 13.75L16.55 17.09H6.39C6.39 17.09 7.91 13.8 7.88 13.72V13.72ZM6.72 20.65C6.13 20.65 5.64 20.15 5.64 19.53C5.64 18.91 6.12 18.41 6.72 18.41C7.32 18.41 7.8 18.91 7.8 19.53C7.8 20.15 7.32 20.65 6.72 20.65ZM16.24 20.65C15.65 20.65 15.16 20.15 15.16 19.53C15.16 18.91 15.64 18.41 16.24 18.41C16.84 18.41 17.32 18.91 17.32 19.53C17.32 20.15 16.84 20.65 16.24 20.65V20.65Z" fill="white"/>
<path d="M22.16 21.03V16.41C22.16 16.11 22.02 15.61 22.02 15.61C22.02 15.61 19.72 10.54 19.71 10.53C19.36 9.68997 18.42 9.46997 18.42 9.46997C18.42 9.46997 12.05 9.50997 12.03 9.46997C11.11 9.49997 10.62 10.39 10.62 10.39L10.28 11.14C10.76 11.14 11.33 11.14 11.9 11.14C12.29 10.89 12.81 10.95 12.81 10.95C12.81 10.95 17.29 10.92 17.32 10.95C18.39 10.95 18.69 11.6 18.69 11.6L20.21 14.94H17.81C18.3 16.01 18.76 17.02 18.85 17.22C18.92 16.68 19.35 16.25 19.9 16.25C20.49 16.25 20.98 16.75 20.98 17.37C20.98 17.99 20.5 18.49 19.9 18.49C19.51 18.49 19.18 18.26 18.99 17.94C18.99 17.99 19 18.03 19 18.07V19.9H19.77V21.06C19.79 21.38 20.14 21.37 20.14 21.37C20.14 21.37 21.8 21.38 21.81 21.37C22.21 21.33 22.16 21.02 22.16 21.02V21.03Z" fill="white"/>
<path d="M25.87 18.89V14.27C25.87 13.97 25.73 13.47 25.73 13.47C25.73 13.47 23.43 8.39996 23.42 8.38996C23.07 7.54996 22.13 7.32996 22.13 7.32996C22.13 7.32996 15.76 7.36996 15.74 7.32996C14.82 7.35996 14.33 8.24996 14.33 8.24996L13.99 8.99996C14.47 8.99996 15.04 8.99996 15.61 8.99996C16 8.74996 16.52 8.80996 16.52 8.80996C16.52 8.80996 21 8.77996 21.03 8.80996C22.1 8.80996 22.4 9.45996 22.4 9.45996L23.92 12.8H21.52C22.01 13.87 22.47 14.88 22.56 15.08C22.63 14.54 23.06 14.11 23.61 14.11C24.2 14.11 24.69 14.61 24.69 15.23C24.69 15.85 24.21 16.35 23.61 16.35C23.22 16.35 22.89 16.12 22.7 15.8C22.7 15.85 22.71 15.89 22.71 15.93V17.76H23.48V18.92C23.5 19.24 23.85 19.23 23.85 19.23C23.85 19.23 25.51 19.24 25.52 19.23C25.92 19.19 25.87 18.88 25.87 18.88V18.89Z" fill="white"/>
</g>
<defs>
<clipPath id="clip0_135_5872">
<rect width="32" height="32" fill="white"/>
</clipPath>
</defs>
</svg>
