<svg width="32" height="32" viewBox="0 0 32 32" fill="none" xmlns="http://www.w3.org/2000/svg">
<circle cx="16" cy="16" r="16" fill="#E60000"/>
<g clip-path="url(#clip0_17_68)">
<path d="M5.06694 18.5804C3.95165 19.1045 3.65222 20.4956 4.45202 21.4132C5.7321 22.8803 8.81676 24.9396 16.0652 24.9824C16.1335 24.9824 22.562 25.45 27.3528 21.4931C28.5284 20.5229 28.022 18.6525 26.5028 18.3915C26.4807 18.3876 26.4586 18.3837 26.4365 18.3798C26.4123 18.4148 27.0273 13.1701 21.9029 9.78404C21.8667 9.7665 21.1935 9.55999 21.087 10.4036L20.7334 14.719C20.7334 14.719 20.6269 15.2528 20.1667 15.1651C19.7065 15.0775 19.7065 14.719 19.7065 14.719L20.239 8.58196C20.239 8.58196 20.1868 8.04813 19.7065 8.03255C19.7587 8.03255 17.8276 8.03255 17.8276 8.03255C17.8276 8.03255 17.3051 7.05257 16.0672 7.00192C14.8293 6.95126 14.333 8.06762 14.333 8.06762L12.5244 8.03255C12.5244 8.03255 11.8512 7.99748 11.9215 8.70275C11.9577 8.70275 12.4359 14.6508 12.4359 14.6508C12.4359 14.6508 12.5063 15.0969 11.9577 15.1671C11.4091 15.2372 11.391 14.7209 11.391 14.7209L11.0373 10.3549C11.0373 10.3549 10.967 9.33983 9.99033 9.94185C9.0157 10.5439 5.68187 13.1915 5.68187 18.3311C5.68187 18.3311 5.4146 18.4207 5.07096 18.5804H5.06694Z" fill="white"/>
</g>
<defs>
<clipPath id="clip0_17_68">
<rect width="24" height="18" fill="white" transform="translate(4 7)"/>
</clipPath>
</defs>
</svg>
