<svg width="32" height="33" viewBox="0 0 32 33" fill="none" xmlns="http://www.w3.org/2000/svg">
<path d="M32 16.4156C32 25.4817 24.8366 32.8312 16 32.8312C7.16344 32.8312 0 25.4817 0 16.4156C0 7.34951 7.16344 0 16 0C24.8366 0 32 7.34951 32 16.4156Z" fill="#F07D02"/>
<path d="M14.2679 6.15584C15.0377 4.78788 16.9622 4.78788 17.732 6.15584L26.3923 21.5455C27.1621 22.9134 26.1999 24.6234 24.6603 24.6234H7.33975C5.80015 24.6234 4.8379 22.9134 5.6077 21.5455L14.2679 6.15584Z" fill="white"/>
<path d="M17.0905 18.4717L17.8189 10.2513C17.9162 9.15395 17.074 8.20779 16 8.20779C14.926 8.20779 14.0838 9.15395 14.1811 10.2513L14.9095 18.4717C14.9607 19.0504 15.4336 19.4935 16 19.4935C16.5664 19.4935 17.0393 19.0504 17.0905 18.4717Z" fill="#F07D02"/>
<path d="M17 21.5455C17 22.1121 16.5523 22.5714 16 22.5714C15.4477 22.5714 15 22.1121 15 21.5455C15 20.9788 15.4477 20.5195 16 20.5195C16.5523 20.5195 17 20.9788 17 21.5455Z" fill="#F07D02"/>
</svg>
