<svg width="32" height="32" viewBox="0 0 32 32" fill="none" xmlns="http://www.w3.org/2000/svg">
<path d="M32 16C32 24.8366 24.8366 32 16 32C7.16344 32 0 24.8366 0 16C0 7.16344 7.16344 0 16 0C24.8366 0 32 7.16344 32 16Z" fill="#E60000"/>
<path d="M14.2679 6C15.0377 4.66667 16.9622 4.66667 17.732 6L26.3923 21C27.1621 22.3333 26.1999 24 24.6603 24H7.33975C5.80015 24 4.8379 22.3333 5.6077 21L14.2679 6Z" fill="white"/>
<path d="M17.0905 18.0041L17.8189 9.99179C17.9162 8.9222 17.074 8 16 8C14.926 8 14.0838 8.9222 14.1811 9.99179L14.9095 18.0041C14.9607 18.5681 15.4336 19 16 19C16.5664 19 17.0393 18.5681 17.0905 18.0041Z" fill="#E60000"/>
<path d="M17 21C17 21.5523 16.5523 22 16 22C15.4477 22 15 21.5523 15 21C15 20.4477 15.4477 20 16 20C16.5523 20 17 20.4477 17 21Z" fill="#E60000"/>
</svg>
