<svg width="32" height="32" viewBox="0 0 32 32" fill="none" xmlns="http://www.w3.org/2000/svg">
<circle cx="16" cy="16" r="16" fill="#E60000"/>
<g clip-path="url(#clip0_96_4495)">
<path d="M17.0331 22.6501V18.036C17.0331 17.738 16.8961 17.2323 16.8961 17.2323C16.8961 17.2323 14.5935 12.1642 14.5813 12.151C14.2327 11.3087 13.2869 11.0884 13.2869 11.0884C13.2869 11.0884 6.91439 11.1275 6.90169 11.0884C5.98075 11.1143 5.49516 12.0089 5.49516 12.0089L3.08834 17.3166C3.08569 17.3353 3.07617 17.3706 3.06453 17.4102C3.02116 17.554 3 17.7049 3 17.8564V22.6634C3 22.9873 3.39197 23.006 3.39197 23.006L5.03495 23.0005C5.37085 22.9487 5.38355 22.6375 5.38355 22.6375V21.5489L14.6437 21.5231V22.6898C14.6686 23.0137 15.0172 23.001 15.0172 23.001C15.0172 23.001 16.6723 23.0143 16.685 23.001C17.0833 22.9619 17.0336 22.6512 17.0336 22.6512L17.0331 22.6501ZM6.4161 13.1883C6.6901 12.4623 7.68563 12.5664 7.68563 12.5664C7.68563 12.5664 12.1665 12.5405 12.1914 12.5664C13.262 12.5664 13.5604 13.2142 13.5604 13.2142L15.0791 16.5586H4.92281C4.92281 16.5586 6.44149 13.2665 6.41663 13.1883H6.4161ZM5.25236 20.1161C4.6578 20.1161 4.1759 19.6143 4.1759 18.9951C4.1759 18.3759 4.6578 17.8741 5.25236 17.8741C5.84692 17.8741 6.32882 18.3759 6.32882 18.9951C6.32882 19.6143 5.84692 20.1161 5.25236 20.1161ZM14.7707 20.1161C14.1761 20.1161 13.6942 19.6143 13.6942 18.9951C13.6942 18.3759 14.1761 17.8741 14.7707 17.8741C15.3652 17.8741 15.8471 18.3759 15.8471 18.9951C15.8471 19.6143 15.3652 20.1161 14.7707 20.1161Z" fill="white"/>
<path d="M16.4095 15.4172L16.407 15.4122C16.407 15.4122 16.4058 15.4141 16.4052 15.4153L16.4095 15.4165V15.4172Z" fill="white"/>
<path d="M15.662 13.7943C15.7011 13.6483 15.5826 13.921 15.662 13.7943V13.7943Z" fill="white"/>
<path d="M28.1124 11.9561C27.9944 11.0471 27.1401 10.5695 27.1401 10.5695C27.1401 10.5695 20.9924 8.82158 20.9903 8.78026C20.0964 8.54724 19.3981 9.27275 19.3981 9.27275L15.7085 13.7106C15.7017 13.7277 15.6831 13.7591 15.6615 13.7938L16.4063 15.4122C16.6448 14.9379 17.187 14.6923 17.7006 14.8702C18.2143 15.0481 18.5211 15.6045 18.4153 16.1526C18.2957 16.7691 17.725 17.1497 17.1537 17.0329V17.0346L17.2584 17.4747C17.3071 17.6791 17.333 17.889 17.3357 18.1L17.3399 18.4321C17.3521 18.5236 17.4155 18.5991 17.5012 18.6238L25.7516 20.9992C25.7516 20.9992 25.4596 22.0877 25.4501 22.123C25.3903 22.442 25.7294 22.5273 25.7294 22.5273C25.7294 22.5273 27.3205 23.0039 27.3359 22.9945C27.7294 23.0689 27.7617 22.7549 27.7617 22.7549L28.954 18.3104C29.0312 18.0234 29.0296 17.4979 29.0296 17.4979C29.0296 17.4979 28.1214 11.9715 28.1124 11.9555V11.9561ZM17.6716 13.4947C17.6716 13.4947 19.9847 10.7491 19.9805 10.6676C20.4317 10.0451 21.3638 10.4241 21.3638 10.4241C21.3638 10.4241 25.686 11.6547 25.7035 11.6867C26.7344 11.9864 26.8545 12.6942 26.8545 12.6942L27.4528 16.3405L17.671 13.4947H17.6716ZM27.5638 18.9026C27.4041 19.4992 26.8101 19.8473 26.2372 19.681C25.6643 19.5146 25.33 18.896 25.4897 18.2994C25.6495 17.7028 26.2435 17.3546 26.8164 17.521C27.3893 17.6874 27.7236 18.306 27.5638 18.9026Z" fill="white"/>
<path d="M15.1785 11.49L13.0002 8.47008C13.0002 8.47008 12.8817 8.26515 13.0758 8.12193C13.0854 8.11972 13.3652 7.93738 13.3652 7.93738C13.3652 7.93738 13.6429 7.76221 13.7714 8.05637C13.7736 8.05858 15.1785 11.4905 15.1785 11.4905V11.49Z" fill="white"/>
<path d="M15.9587 11.1777L15.3732 6.36907C15.3732 6.36907 15.3663 6.06223 15.6699 6.03083C15.6816 6.03414 16.1053 6.01651 16.1053 6.01651C16.1053 6.01651 16.5216 6.00494 16.4856 6.4181C16.4867 6.42251 15.9593 11.1782 15.9593 11.1782L15.9587 11.1777Z" fill="white"/>
<path d="M16.7638 11.1777L18.9421 8.15782C18.9421 8.15782 19.0606 7.9529 18.8665 7.80967C18.857 7.80747 18.5772 7.62513 18.5772 7.62513C18.5772 7.62513 18.2994 7.44995 18.1709 7.74412C18.1688 7.74632 16.7638 11.1783 16.7638 11.1783V11.1777Z" fill="white"/>
</g>
<defs>
<clipPath id="clip0_96_4495">
<rect width="26" height="17" fill="white" transform="translate(3 6)"/>
</clipPath>
</defs>
</svg>
