<svg width="32" height="32" viewBox="0 0 32 32" fill="none" xmlns="http://www.w3.org/2000/svg">
<circle cx="16" cy="16" r="16" fill="#9E1313"/>
<g clip-path="url(#clip0_96_4544)">
<path d="M9.8169 16.2635H8.04884V23.2901H9.8169V16.2635Z" fill="white"/>
<path d="M11.3281 23.2902H6.54654C6.24469 23.2902 6 23.5289 6 23.8234V24.4667C6 24.7612 6.24469 25 6.54654 25H11.3281C11.6299 25 11.8746 24.7612 11.8746 24.4667V23.8234C11.8746 23.5289 11.6299 23.2902 11.3281 23.2902Z" fill="white"/>
<path d="M22.1947 18.2708H9.81691V19.4626H22.1947V18.2708Z" fill="white"/>
<path d="M23.9307 16.2635H22.1947V23.2901H23.9307V16.2635Z" fill="white"/>
<path d="M25.4535 23.2902H20.6719C20.3701 23.2902 20.1254 23.5289 20.1254 23.8234V24.4667C20.1254 24.7612 20.3701 25 20.6719 25H25.4535C25.7553 25 26 24.7612 26 24.4667V23.8234C26 23.5289 25.7553 23.2902 25.4535 23.2902Z" fill="white"/>
<path d="M23.1771 11.7461H19.1375L14.5137 15.793H18.7385L23.1771 11.7461Z" fill="white"/>
<path d="M25.4261 11.7461H25.1016L20.5804 15.793H25.4261C25.7281 15.793 25.9727 15.5544 25.9727 15.2597V12.2794C25.9727 11.9847 25.7281 11.7461 25.4261 11.7461V11.7461Z" fill="white"/>
<path d="M8.59743 15.793H12.8297L17.4111 11.7461H13.1583L8.59743 15.793Z" fill="white"/>
<path d="M11.3862 11.7461H6.54654C6.24458 11.7461 6 11.9847 6 12.2794V15.2597C6 15.5544 6.24458 15.793 6.54654 15.793H6.8205L11.3862 11.7461V11.7461Z" fill="white"/>
<path d="M8.93288 8.37174C9.58524 8.37174 10.1141 7.85573 10.1141 7.2192C10.1141 6.58266 9.58524 6.06665 8.93288 6.06665C8.28051 6.06665 7.75166 6.58266 7.75166 7.2192C7.75166 7.85573 8.28051 8.37174 8.93288 8.37174Z" fill="white"/>
<path d="M8.93287 8.8664C8.58035 8.8664 8.26541 8.71508 8.04884 8.47644V11.2268H9.8169V8.47644C9.60034 8.71508 9.28539 8.8664 8.93287 8.8664V8.8664Z" fill="white"/>
<path d="M23.119 8.37174C23.7714 8.37174 24.3003 7.85573 24.3003 7.2192C24.3003 6.58266 23.7714 6.06665 23.119 6.06665C22.4667 6.06665 21.9378 6.58266 21.9378 7.2192C21.9378 7.85573 22.4667 8.37174 23.119 8.37174Z" fill="white"/>
<path d="M23.119 8.8664C22.7665 8.8664 22.4516 8.71508 22.235 8.47644V11.2268H24.0031V8.47644C23.7865 8.71508 23.4716 8.8664 23.119 8.8664V8.8664Z" fill="white"/>
</g>
<defs>
<clipPath id="clip0_96_4544">
<rect width="20" height="19" fill="white" transform="translate(6 6)"/>
</clipPath>
</defs>
</svg>
