<svg width="32" height="32" viewBox="0 0 32 32" fill="none" xmlns="http://www.w3.org/2000/svg">
<circle cx="16" cy="16" r="16" fill="white"/>
<g clip-path="url(#clip0_72_13)">
<path d="M22.6642 12.2553L22.3304 8.35896L15.8321 5L12.3181 6.91878L11.0029 6.8992L9.11795 10.3539L9.8835 10.8716L9 12.0225L11.3167 13.3278L12.1601 12.1182L18.2267 15.3814L17.6169 16.5518L19.9736 17.818L20.5433 16.7041L21.5448 16.6476L23.2918 13.0776L22.6642 12.2531V12.2553ZM21.7028 12.14L12.8077 7.47571L15.5962 5.78753L21.7028 8.93546V12.1421V12.14Z" fill="black"/>
<path d="M12.6273 15.0398L6.26482 19.6084C6.26482 19.6084 5.40135 20.6635 6.79447 21.029C6.8145 21.0485 10.6623 22.5453 10.6623 22.5453C10.6623 22.5453 11.6237 22.9107 10.8581 23.5047C10.8581 23.4851 7.38199 25.9999 7.44208 25.9999H12.6273L13.9047 23.6004C13.9047 23.6004 14.4544 22.4495 13.611 22.1602C13.631 22.1602 8.22988 20.298 8.22988 20.298C8.22988 20.298 7.58228 19.7802 8.20985 19.319C8.18982 19.319 12.8054 15.327 12.8054 15.327C12.8054 15.327 12.9256 14.9941 12.6296 15.0398H12.6273Z" fill="black"/>
<path d="M20.1138 25.9999H25.6895L25.966 23.952C25.966 23.952 26.2424 22.7933 25.2191 22.6378C25.179 22.6378 16.8522 20.1758 16.8522 20.1758C16.8522 20.1758 16.0385 19.8407 16.7742 19.396C16.7742 19.4001 17.2497 19.0515 17.6084 18.7879C17.8548 18.6069 18.0746 18.4062 17.8848 18.1666C17.7608 18.0102 17.4126 18.0621 17.2499 18.1777L15.3006 19.5625C15.3006 19.5625 14.3687 20.5087 15.7866 21.0563C15.7665 21.0563 22.3098 23.2138 22.3098 23.2138C22.3098 23.2138 23.0187 23.5227 22.4079 24.0067C22.448 24.0264 20.1161 25.9977 20.1161 25.9977L20.1138 25.9999Z" fill="black"/>
</g>
<defs>
<clipPath id="clip0_72_13">
<rect width="20" height="21" fill="white" transform="translate(6 5)"/>
</clipPath>
</defs>
</svg>
