<svg width="40" height="44" viewBox="0 0 40 44" fill="none" xmlns="http://www.w3.org/2000/svg">
<g filter="url(#filter0_d_96_4558)">
<path d="M36 17.8923C36 26.6693 28.8366 33.7845 20 33.7845C11.1634 33.7845 4 26.6693 4 17.8923C4 9.11521 11.1634 2 20 2C28.8366 2 36 9.11521 36 17.8923Z" fill="white"/>
<path d="M20.822 37.5724C20.4243 38.1425 19.5757 38.1425 19.178 37.5724L15.8912 32.8603C15.4317 32.2015 15.9064 31.3014 16.7132 31.3014H23.2868C24.0936 31.3014 24.5683 32.2015 24.1088 32.8603L20.822 37.5724Z" fill="white"/>
<path d="M14.9231 11.4709C14.6469 11.4709 14.4231 11.6947 14.4231 11.9709C14.4231 12.247 14.6469 12.4709 14.9231 12.4709V11.4709ZM17.6923 12.4709C17.9685 12.4709 18.1923 12.247 18.1923 11.9709C18.1923 11.6947 17.9685 11.4709 17.6923 11.4709V12.4709ZM19.5385 20.6811V21.1811C19.7062 21.1811 19.8627 21.097 19.9553 20.9571C20.0479 20.8173 20.0643 20.6403 19.9988 20.4859L19.5385 20.6811ZM12.6154 20.6811L12.1971 20.4072C12.0965 20.5608 12.0882 20.7572 12.1755 20.9188C12.2629 21.0804 12.4317 21.1811 12.6154 21.1811V20.6811ZM19.3441 20.2226L18.8838 20.4178L18.8838 20.4178L19.3441 20.2226ZM23.6923 11.9709L23.5949 11.4805C23.4489 11.5095 23.3234 11.602 23.2525 11.733C23.1817 11.8639 23.1729 12.0196 23.2285 12.1577L23.6923 11.9709ZM26.0974 12.0029C26.3683 11.9491 26.5442 11.6859 26.4904 11.415C26.4366 11.1442 26.1734 10.9682 25.9026 11.022L26.0974 12.0029ZM26.9255 20.8791C27.0349 21.1327 27.3292 21.2496 27.5827 21.1402C27.8363 21.0308 27.9531 20.7365 27.8437 20.483L26.9255 20.8791ZM14.9231 12.4709H15.8462V11.4709H14.9231V12.4709ZM15.8462 12.4709H17.6923V11.4709H15.8462V12.4709ZM19.5385 20.1811H12.6154V21.1811H19.5385V20.1811ZM15.3858 12.166L16.3575 14.4582L17.2782 14.0679L16.3065 11.7757L15.3858 12.166ZM13.0337 20.955L17.2361 14.5369L16.3995 13.9891L12.1971 20.4072L13.0337 20.955ZM16.3575 14.4582L18.8838 20.4178L19.8045 20.0275L17.2782 14.0679L16.3575 14.4582ZM18.8838 20.4178L19.0781 20.8762L19.9988 20.4859L19.8045 20.0275L18.8838 20.4178ZM24.2409 13.9318L18.9696 19.8914L19.7187 20.5539L24.9899 14.5943L24.2409 13.9318ZM16.8178 14.763H24.6154V13.763H16.8178V14.763ZM25.0792 14.0763L24.1561 11.7841L23.2285 12.1577L24.1516 14.4498L25.0792 14.0763ZM23.7897 12.4613L26.0974 12.0029L25.9026 11.022L23.5949 11.4805L23.7897 12.4613ZM24.1563 14.4611L26.9255 20.8791L27.8437 20.483L25.0745 14.0649L24.1563 14.4611Z" fill="black"/>
<path d="M16.7308 20.681C16.7308 22.9335 14.8914 24.7653 12.6154 24.7653C10.3393 24.7653 8.5 22.9335 8.5 20.681C8.5 18.4285 10.3393 16.5967 12.6154 16.5967C14.8914 16.5967 16.7308 18.4285 16.7308 20.681Z" stroke="black"/>
<path d="M31.5 20.681C31.5 22.9335 29.6607 24.7653 27.3846 24.7653C25.1086 24.7653 23.2692 22.9335 23.2692 20.681C23.2692 18.4285 25.1086 16.5967 27.3846 16.5967C29.6607 16.5967 31.5 18.4285 31.5 20.681Z" stroke="black"/>
</g>
<defs>
<filter id="filter0_d_96_4558" x="0" y="0" width="40" height="44" filterUnits="userSpaceOnUse" color-interpolation-filters="sRGB">
<feFlood flood-opacity="0" result="BackgroundImageFix"/>
<feColorMatrix in="SourceAlpha" type="matrix" values="0 0 0 0 0 0 0 0 0 0 0 0 0 0 0 0 0 0 127 0" result="hardAlpha"/>
<feOffset dy="2"/>
<feGaussianBlur stdDeviation="2"/>
<feComposite in2="hardAlpha" operator="out"/>
<feColorMatrix type="matrix" values="0 0 0 0 0 0 0 0 0 0 0 0 0 0 0 0 0 0 0.25 0"/>
<feBlend mode="normal" in2="BackgroundImageFix" result="effect1_dropShadow_96_4558"/>
<feBlend mode="normal" in="SourceGraphic" in2="effect1_dropShadow_96_4558" result="shape"/>
</filter>
</defs>
</svg>
