<svg width="32" height="37" viewBox="0 0 32 37" fill="none" xmlns="http://www.w3.org/2000/svg">
<path d="M32 16C32 24.8366 24.8366 32 16 32C7.16344 32 0 24.8366 0 16C0 7.16344 7.16344 0 16 0C24.8366 0 32 7.16344 32 16Z" fill="white"/>
<path d="M16.822 35.8136C16.4243 36.3876 15.5757 36.3876 15.178 35.8136L11.8912 31.0695C11.4317 30.4063 11.9064 29.5 12.7132 29.5H19.2868C20.0936 29.5 20.5683 30.4063 20.1088 31.0695L16.822 35.8136Z" fill="white"/>
<path d="M10.9231 9.53844C10.6469 9.53844 10.4231 9.7623 10.4231 10.0384C10.4231 10.3146 10.6469 10.5384 10.9231 10.5384V9.53844ZM13.6923 10.5384C13.9685 10.5384 14.1923 10.3146 14.1923 10.0384C14.1923 9.7623 13.9685 9.53844 13.6923 9.53844V10.5384ZM15.5385 18.8077V19.3077C15.706 19.3077 15.8623 19.2238 15.955 19.0842C16.0477 18.9447 16.0643 18.768 15.9993 18.6136L15.5385 18.8077ZM8.61539 18.8077L8.19624 18.5351C8.09626 18.6888 8.08845 18.8849 8.1759 19.0461C8.26334 19.2073 8.43201 19.3077 8.61539 19.3077V18.8077ZM15.3441 18.3461L14.8833 18.5402L14.8833 18.5402L15.3441 18.3461ZM19.6923 10.0384L19.5943 9.54815C19.4486 9.57728 19.3234 9.66968 19.2527 9.80029C19.1819 9.9309 19.1729 10.0862 19.2281 10.2241L19.6923 10.0384ZM22.0981 10.0672C22.3688 10.013 22.5444 9.74963 22.4903 9.47885C22.4361 9.20807 22.1727 9.03246 21.9019 9.08661L22.0981 10.0672ZM22.925 19.0046C23.0338 19.2584 23.3278 19.376 23.5816 19.2672C23.8354 19.1585 23.953 18.8645 23.8442 18.6107L22.925 19.0046ZM10.9231 10.5384H11.8462V9.53844H10.9231V10.5384ZM11.8462 10.5384H13.6923V9.53844H11.8462V10.5384ZM15.5385 18.3077H8.61539V19.3077H15.5385V18.3077ZM11.3853 10.2325L12.357 12.5402L13.2786 12.1521L12.307 9.84441L11.3853 10.2325ZM9.03454 19.0803L13.237 12.6187L12.3987 12.0735L8.19624 18.5351L9.03454 19.0803ZM12.357 12.5402L14.8833 18.5402L15.8049 18.1521L13.2786 12.1521L12.357 12.5402ZM14.8833 18.5402L15.0776 19.0017L15.9993 18.6136L15.8049 18.1521L14.8833 18.5402ZM20.2398 12.0161L14.9685 18.0161L15.7198 18.6761L20.991 12.6761L20.2398 12.0161ZM12.8178 12.8461H20.6154V11.8461H12.8178V12.8461ZM21.0796 12.1604L20.1565 9.85275L19.2281 10.2241L20.1511 12.5318L21.0796 12.1604ZM19.7904 10.5287L22.0981 10.0672L21.9019 9.08661L19.5943 9.54815L19.7904 10.5287ZM20.1558 12.5431L22.925 19.0046L23.8442 18.6107L21.075 12.1492L20.1558 12.5431Z" fill="black"/>
<circle cx="8.61539" cy="18.8076" r="4.11538" stroke="black"/>
<circle cx="23.3846" cy="18.8076" r="4.11538" stroke="black"/>
</svg>
