<svg width="32" height="36" viewBox="0 0 32 36" fill="none" xmlns="http://www.w3.org/2000/svg">
<path d="M32 15.8923C32 24.6693 24.8366 31.7845 16 31.7845C7.16344 31.7845 0 24.6693 0 15.8923C0 7.11521 7.16344 0 16 0C24.8366 0 32 7.11521 32 15.8923Z" fill="white"/>
<path d="M16.822 35.5724C16.4243 36.1425 15.5757 36.1425 15.178 35.5724L11.8912 30.8603C11.4317 30.2015 11.9064 29.3014 12.7132 29.3014H19.2868C20.0936 29.3014 20.5683 30.2015 20.1088 30.8603L16.822 35.5724Z" fill="white"/>
<path d="M10.9231 9.47088C10.6469 9.47088 10.4231 9.69474 10.4231 9.97088C10.4231 10.247 10.6469 10.4709 10.9231 10.4709V9.47088ZM13.6923 10.4709C13.9685 10.4709 14.1923 10.247 14.1923 9.97088C14.1923 9.69474 13.9685 9.47088 13.6923 9.47088V10.4709ZM15.5385 18.6811V19.1811C15.7062 19.1811 15.8627 19.097 15.9553 18.9571C16.0479 18.8173 16.0643 18.6403 15.9988 18.4859L15.5385 18.6811ZM8.61539 18.6811L8.19708 18.4072C8.09648 18.5608 8.0882 18.7572 8.17553 18.9188C8.26286 19.0804 8.43173 19.1811 8.61539 19.1811V18.6811ZM15.3441 18.2226L14.8838 18.4178L14.8838 18.4178L15.3441 18.2226ZM19.6923 9.97088L19.5949 9.48046C19.4489 9.50947 19.3234 9.60203 19.2525 9.73296C19.1817 9.86389 19.1729 10.0196 19.2285 10.1577L19.6923 9.97088ZM22.0974 10.0029C22.3683 9.94906 22.5442 9.68588 22.4904 9.41503C22.4366 9.14418 22.1734 8.96823 21.9026 9.02203L22.0974 10.0029ZM22.9255 18.8791C23.0349 19.1327 23.3292 19.2496 23.5827 19.1402C23.8363 19.0308 23.9531 18.7365 23.8437 18.483L22.9255 18.8791ZM10.9231 10.4709H11.8462V9.47088H10.9231V10.4709ZM11.8462 10.4709H13.6923V9.47088H11.8462V10.4709ZM15.5385 18.1811H8.61539V19.1811H15.5385V18.1811ZM11.3858 10.166L12.3575 12.4582L13.2782 12.0679L12.3065 9.77574L11.3858 10.166ZM9.03369 18.955L13.2361 12.5369L12.3995 11.9891L8.19708 18.4072L9.03369 18.955ZM12.3575 12.4582L14.8838 18.4178L15.8045 18.0275L13.2782 12.0679L12.3575 12.4582ZM14.8838 18.4178L15.0781 18.8762L15.9988 18.4859L15.8045 18.0275L14.8838 18.4178ZM20.2409 11.9318L14.9696 17.8914L15.7187 18.5539L20.9899 12.5943L20.2409 11.9318ZM12.8178 12.763H20.6154V11.763H12.8178V12.763ZM21.0792 12.0763L20.1561 9.7841L19.2285 10.1577L20.1516 12.4498L21.0792 12.0763ZM19.7897 10.4613L22.0974 10.0029L21.9026 9.02203L19.5949 9.48046L19.7897 10.4613ZM20.1563 12.4611L22.9255 18.8791L23.8437 18.483L21.0745 12.0649L20.1563 12.4611Z" fill="black"/>
<path d="M12.7308 18.681C12.7308 20.9335 10.8914 22.7653 8.61538 22.7653C6.33933 22.7653 4.5 20.9335 4.5 18.681C4.5 16.4285 6.33933 14.5967 8.61538 14.5967C10.8914 14.5967 12.7308 16.4285 12.7308 18.681Z" stroke="black"/>
<path d="M27.5 18.681C27.5 20.9335 25.6607 22.7653 23.3846 22.7653C21.1086 22.7653 19.2692 20.9335 19.2692 18.681C19.2692 16.4285 21.1086 14.5967 23.3846 14.5967C25.6607 14.5967 27.5 16.4285 27.5 18.681Z" stroke="black"/>
<path d="M16.875 4.96631L15 6.95284H18L16.125 8.93937" stroke="black" stroke-linecap="round" stroke-linejoin="round"/>
</svg>
