<svg width="32" height="37" viewBox="0 0 32 37" fill="none" xmlns="http://www.w3.org/2000/svg">
<path d="M32 16C32 24.8366 24.8366 32 16 32C7.16344 32 0 24.8366 0 16C0 7.16344 7.16344 0 16 0C24.8366 0 32 7.16344 32 16Z" fill="white"/>
<path d="M16.822 35.8136C16.4243 36.3876 15.5757 36.3876 15.178 35.8136L11.8912 31.0695C11.4317 30.4063 11.9064 29.5 12.7132 29.5H19.2868C20.0936 29.5 20.5683 30.4063 20.1088 31.0695L16.822 35.8136Z" fill="white"/>
<circle cx="8.5" cy="20.5" r="3" stroke="black"/>
<circle cx="23.5" cy="20.5" r="3" stroke="black"/>
<path d="M8.5 17.5L10.5 12H12.5L11.5 15.5L13 19H16.5L17.5 14.5H24.5L26.5 16.5V20.5" stroke="black" stroke-linejoin="round"/>
<path d="M20.5 20.5H11.5M10.5 12V10.5L14.5 9.5M17.5 14.5C17.3333 14.5 17 14.4 17 14C17 13.6 17.3333 13.5 17.5 13.5L24 13C24.1667 13 24.5 13.1 24.5 13.5C24.5 14 24.5 14.5 24 14.5C23.6 14.5 19.5 14.5 17.5 14.5Z" stroke="black" stroke-linecap="round" stroke-linejoin="round"/>
</svg>
