<svg width="32" height="37" viewBox="0 0 32 37" fill="none" xmlns="http://www.w3.org/2000/svg">
<path d="M32 16C32 24.8366 24.8366 32 16 32C7.16344 32 0 24.8366 0 16C0 7.16344 7.16344 0 16 0C24.8366 0 32 7.16344 32 16Z" fill="white"/>
<path d="M16.822 35.8136C16.4243 36.3876 15.5757 36.3876 15.178 35.8136L11.8912 31.0695C11.4317 30.4063 11.9064 29.5 12.7132 29.5H19.2868C20.0936 29.5 20.5683 30.4063 20.1088 31.0695L16.822 35.8136Z" fill="white"/>
<path d="M15.64 7H12.76L9.15999 22.12" stroke="black" stroke-linecap="round"/>
<circle cx="9.16" cy="22.12" r="1.66" stroke="black"/>
<path d="M24.5 22.12C24.5 23.0367 23.7568 23.78 22.84 23.78C21.9232 23.78 21.18 23.0367 21.18 22.12C21.18 21.2032 21.9232 20.46 22.84 20.46C23.7568 20.46 24.5 21.2032 24.5 22.12Z" stroke="black"/>
<path d="M22.84 22.6199C23.1161 22.6199 23.34 22.396 23.34 22.1199C23.34 21.8437 23.1161 21.6199 22.84 21.6199V22.6199ZM11.05 22.6199H22.84V21.6199H11.05V22.6199Z" fill="black"/>
</svg>
